<?xml version="1.0" encoding="UTF-8" standalone="no"?>
<!-- Created with Inkscape (http://www.inkscape.org/) -->

<svg
   xmlns:dc="http://purl.org/dc/elements/1.1/"
   xmlns:cc="http://creativecommons.org/ns#"
   xmlns:rdf="http://www.w3.org/1999/02/22-rdf-syntax-ns#"
   xmlns:svg="http://www.w3.org/2000/svg"
   xmlns="http://www.w3.org/2000/svg"
   xmlns:sodipodi="http://sodipodi.sourceforge.net/DTD/sodipodi-0.dtd"
   xmlns:inkscape="http://www.inkscape.org/namespaces/inkscape"
   width="524.40942"
   height="744.09448"
   id="svg2"
   version="1.1"
   inkscape:version="0.48.4 r9939"
   sodipodi:docname="letzte_seite.svg">
  <defs
     id="defs4">
    <clipPath
       clipPathUnits="userSpaceOnUse"
       id="clipPath166">
      <path
         inkscape:connector-curvature="0"
         d="M 352.147,97.596 353.814,59.379 550.27,57.622 547.702,116.455 352.147,97.596 z"
         id="path168" />
    </clipPath>
    <clipPath
       clipPathUnits="userSpaceOnUse"
       id="clipPath150">
      <path
         inkscape:connector-curvature="0"
         d="m 348.159,55.829 -0.845,-32.184 161.721,-8.914 1.089,41.524 -161.965,-0.426 z"
         id="path152" />
    </clipPath>
  </defs>
  <sodipodi:namedview
     id="base"
     pagecolor="#ffffff"
     bordercolor="#666666"
     borderopacity="1.0"
     inkscape:pageopacity="0.0"
     inkscape:pageshadow="2"
     inkscape:zoom="0.49497475"
     inkscape:cx="148.52585"
     inkscape:cy="443.64379"
     inkscape:document-units="px"
     inkscape:current-layer="layer1"
     showgrid="false"
     inkscape:window-width="1600"
     inkscape:window-height="843"
     inkscape:window-x="0"
     inkscape:window-y="27"
     inkscape:window-maximized="1" />
  <metadata
     id="metadata7">
    <rdf:RDF>
      <cc:Work
         rdf:about="">
        <dc:format>image/svg+xml</dc:format>
        <dc:type
           rdf:resource="http://purl.org/dc/dcmitype/StillImage" />
        <dc:title></dc:title>
      </cc:Work>
    </rdf:RDF>
  </metadata>
  <g
     inkscape:label="Ebene 1"
     inkscape:groupmode="layer"
     id="layer1"
     transform="translate(0,-308.26769)">
    <g
       id="g3109"
       transform="matrix(0.14494925,0,0,0.14494925,275.12691,831.46649)">
      <g
         transform="matrix(5.5533468,0,0,-5.5533468,1210.6909,1242.1474)"
         id="g126">
        <path
           id="path128"
           style="fill:#ffffff;fill-opacity:1;fill-rule:nonzero;stroke:none"
           d="m 0,0 -171.612,13.336 3.425,36.545 5.754,1.286 -4.158,40.877 L 39.715,113.625 42.519,43.829 1.544,44.357 0,0 z"
           inkscape:connector-curvature="0" />
      </g>
      <g
         transform="matrix(5.5533468,0,0,-5.5533468,1432.8204,958.45024)"
         id="g130">
        <path
           id="path132"
           style="fill:#faa22c;fill-opacity:1;fill-rule:nonzero;stroke:none"
           d="M 0,0 -2.498,58.979 -200.373,40.44 -200.949,-1.365 0,0 z"
           inkscape:connector-curvature="0" />
      </g>
      <g
         transform="matrix(5.5533468,0,0,-5.5533468,1199.1766,1194.2276)"
         id="g134">
        <path
           id="path136"
           style="fill:#faa22c;fill-opacity:1;fill-rule:nonzero;stroke:none"
           d="M 0,0 1.153,40.92 -166.439,44.09 -167.48,8.837 0,0 z"
           inkscape:connector-curvature="0" />
      </g>
      <g
         transform="matrix(5.5533468,0,0,-5.5533468,393.16059,941.44869)"
         id="g138">
        <path
           id="path140"
           style="fill:#ffffff;fill-opacity:1;fill-rule:nonzero;stroke:none"
           d="M 0,0 172.324,2.665 169.155,46.311 -3.298,32.076 0,0 z"
           inkscape:connector-curvature="0" />
      </g>
      <g
         transform="matrix(5.5533468,0,0,-5.5533468,364.02325,1028.3313)"
         id="g142">
        <path
           id="path144"
           style="fill:#ffffff;fill-opacity:1;fill-rule:nonzero;stroke:none"
           d="m 0,0 -3.398,-19.343 144.66,-7.413 0,35.113 -137.338,0 L 0,0 z"
           inkscape:connector-curvature="0" />
      </g>
      <g
         id="g146"
         transform="matrix(5.5533468,0,0,-5.5533468,-1646.0634,1286.5786)">
        <g
           clip-path="url(#clipPath150)"
           id="g148">
          <g
             transform="translate(454.6139,24.8192)"
             id="g154">
            <path
               id="path156"
               style="fill:#000000;fill-opacity:1;fill-rule:nonzero;stroke:none"
               d="m 0,0 c -0.103,0.005 -0.196,0.024 -0.278,0.056 -0.081,0.033 -0.151,0.078 -0.208,0.135 -0.056,0.058 -0.099,0.126 -0.128,0.205 -0.028,0.079 -0.042,0.168 -0.039,0.266 l 0.594,22.678 c 0.002,0.097 0.021,0.186 0.053,0.263 0.033,0.078 0.08,0.144 0.139,0.199 0.06,0.054 0.132,0.096 0.215,0.124 0.083,0.029 0.177,0.043 0.28,0.042 l 15.798,-0.132 c 0.108,-10e-4 0.206,-0.018 0.291,-0.048 0.086,-0.03 0.159,-0.075 0.218,-0.131 0.059,-0.057 0.105,-0.126 0.134,-0.206 0.03,-0.08 0.045,-0.171 0.042,-0.272 l -0.094,-3.574 c -0.002,-0.1 -0.021,-0.191 -0.055,-0.27 -0.035,-0.08 -0.083,-0.148 -0.146,-0.203 -0.062,-0.055 -0.137,-0.098 -0.224,-0.126 -0.087,-0.028 -0.186,-0.042 -0.294,-0.041 L 6.073,19.124 C 5.968,19.126 5.872,19.112 5.788,19.084 5.704,19.057 5.631,19.015 5.571,18.961 5.511,18.907 5.463,18.84 5.43,18.762 5.397,18.685 5.379,18.596 5.376,18.497 L 5.284,14.984 c -0.002,-0.099 0.012,-0.189 0.04,-0.268 0.029,-0.079 0.073,-0.147 0.13,-0.204 0.057,-0.057 0.128,-0.101 0.211,-0.132 0.082,-0.031 0.177,-0.049 0.282,-0.051 l 8.368,-0.19 c 0.107,-0.002 0.205,-0.02 0.29,-0.052 0.085,-0.031 0.158,-0.076 0.217,-0.134 0.059,-0.057 0.104,-0.127 0.134,-0.207 0.03,-0.081 0.044,-0.171 0.042,-0.271 L 14.904,9.91 C 14.902,9.81 14.883,9.72 14.849,9.641 14.815,9.562 14.766,9.495 14.704,9.441 14.642,9.387 14.567,9.345 14.48,9.318 14.393,9.291 14.295,9.279 14.187,9.282 L 5.821,9.532 C 5.716,9.535 5.621,9.522 5.537,9.496 5.452,9.469 5.38,9.429 5.319,9.376 5.259,9.322 5.212,9.256 5.179,9.179 5.146,9.102 5.128,9.013 5.125,8.914 L 5.028,5.213 C 5.026,5.114 5.039,5.024 5.068,4.944 5.097,4.864 5.141,4.795 5.198,4.738 5.255,4.681 5.326,4.635 5.408,4.603 5.491,4.571 5.586,4.552 5.691,4.548 L 15.91,4.167 c 0.109,-0.004 0.206,-0.023 0.292,-0.056 0.085,-0.033 0.158,-0.079 0.217,-0.137 0.059,-0.059 0.105,-0.129 0.134,-0.21 0.03,-0.081 0.045,-0.173 0.042,-0.274 l -0.094,-3.574 c -0.002,-0.1 -0.022,-0.19 -0.055,-0.269 -0.034,-0.078 -0.083,-0.144 -0.145,-0.197 -0.062,-0.054 -0.138,-0.094 -0.225,-0.12 -0.087,-0.025 -0.185,-0.036 -0.293,-0.032 L 0,0 z m -72.819,10.783 0.125,-0.004 c 0.011,0.419 0.041,0.905 0.086,1.433 0.046,0.529 0.108,1.099 0.184,1.686 0.076,0.587 0.166,1.192 0.268,1.787 0.102,0.597 0.216,1.185 0.34,1.74 l 1.6,7.054 c 0.009,0.041 0.024,0.078 0.044,0.109 0.019,0.031 0.043,0.057 0.072,0.077 0.028,0.021 0.059,0.036 0.094,0.046 0.035,0.011 0.072,0.015 0.112,0.015 l 3.794,-0.031 c 0.059,0 0.112,-0.006 0.157,-0.017 0.046,-0.01 0.084,-0.027 0.114,-0.048 0.03,-0.021 0.053,-0.047 0.068,-0.079 0.015,-0.032 0.022,-0.068 0.021,-0.11 0,-0.013 -0.004,-0.035 -0.009,-0.062 -0.006,-0.027 -0.013,-0.059 -0.021,-0.092 -0.008,-0.032 -0.017,-0.065 -0.024,-0.094 -0.008,-0.029 -0.014,-0.055 -0.019,-0.071 L -70.575,3.521 c -0.014,-0.062 -0.036,-0.117 -0.066,-0.163 -0.03,-0.046 -0.068,-0.085 -0.113,-0.115 -0.045,-0.03 -0.098,-0.052 -0.156,-0.066 -0.059,-0.014 -0.124,-0.019 -0.195,-0.016 l -3.407,0.152 c -0.067,0.003 -0.128,0.014 -0.183,0.034 -0.055,0.019 -0.104,0.046 -0.145,0.079 -0.042,0.033 -0.077,0.071 -0.104,0.114 -0.027,0.043 -0.046,0.09 -0.056,0.141 l -1.792,7.839 c -0.093,0.407 -0.176,0.888 -0.247,1.415 -0.07,0.526 -0.129,1.098 -0.174,1.688 -0.046,0.589 -0.077,1.196 -0.094,1.793 -0.017,0.596 -0.019,1.183 -0.005,1.73 l -0.124,0.003 c -0.038,-0.436 -0.08,-0.837 -0.125,-1.207 -0.046,-0.371 -0.095,-0.711 -0.148,-1.026 -0.052,-0.315 -0.107,-0.604 -0.166,-0.873 -0.058,-0.27 -0.119,-0.519 -0.183,-0.752 L -80.943,3.975 c -0.017,-0.057 -0.04,-0.108 -0.07,-0.153 -0.03,-0.045 -0.066,-0.083 -0.109,-0.114 -0.042,-0.03 -0.091,-0.054 -0.147,-0.069 -0.056,-0.014 -0.118,-0.021 -0.186,-0.018 L -84.58,3.76 c -0.064,0.003 -0.122,0.015 -0.175,0.034 -0.053,0.019 -0.1,0.045 -0.141,0.077 -0.04,0.032 -0.074,0.07 -0.1,0.113 -0.026,0.042 -0.045,0.088 -0.055,0.137 l -3.334,19.527 c -0.01,0.048 -0.027,0.129 -0.046,0.224 -0.019,0.096 -0.04,0.206 -0.061,0.312 -0.02,0.106 -0.039,0.209 -0.053,0.29 -0.014,0.081 -0.022,0.141 -0.022,0.161 10e-4,0.04 0.01,0.076 0.025,0.106 0.015,0.03 0.038,0.055 0.067,0.075 0.029,0.02 0.066,0.035 0.108,0.045 0.043,0.009 0.092,0.014 0.148,0.014 l 3.547,-0.029 c 0.048,-0.001 0.09,-0.006 0.126,-0.016 0.036,-0.011 0.066,-0.026 0.091,-0.047 0.025,-0.021 0.045,-0.046 0.06,-0.077 0.015,-0.03 0.025,-0.066 0.031,-0.107 l 1.448,-9.658 c 0.055,-0.373 0.106,-0.739 0.152,-1.095 0.046,-0.355 0.088,-0.7 0.124,-1.028 0.035,-0.327 0.065,-0.639 0.089,-0.929 0.023,-0.29 0.04,-0.558 0.049,-0.799 l 0.121,-0.004 c 0.027,0.457 0.074,0.971 0.137,1.515 0.063,0.544 0.143,1.119 0.237,1.698 0.094,0.58 0.201,1.163 0.32,1.725 0.119,0.562 0.249,1.102 0.387,1.595 l 1.916,6.888 c 0.013,0.041 0.027,0.08 0.046,0.115 0.019,0.035 0.042,0.067 0.073,0.094 0.03,0.026 0.067,0.047 0.114,0.062 0.047,0.014 0.103,0.022 0.172,0.022 l 3.167,-0.026 c 0.055,0 0.102,-0.006 0.143,-0.017 0.041,-0.01 0.076,-0.026 0.105,-0.047 0.03,-0.021 0.054,-0.047 0.073,-0.078 0.019,-0.031 0.034,-0.067 0.044,-0.109 l 2.199,-9.824 c 0.056,-0.251 0.106,-0.519 0.152,-0.805 0.045,-0.287 0.086,-0.592 0.121,-0.917 0.036,-0.325 0.066,-0.67 0.092,-1.035 0.026,-0.365 0.047,-0.751 0.064,-1.159 m 7.204,-7.866 c -0.06,0.003 -0.113,0.01 -0.158,0.023 -0.046,0.012 -0.084,0.029 -0.115,0.052 -0.03,0.022 -0.053,0.049 -0.068,0.082 -0.015,0.032 -0.022,0.069 -0.021,0.112 0.001,0.02 0.003,0.045 0.007,0.072 0.005,0.027 0.01,0.056 0.017,0.085 0.007,0.029 0.015,0.058 0.023,0.085 0.008,0.027 0.017,0.052 0.026,0.073 0.004,0.012 0.406,1.306 1.009,3.242 0.603,1.939 1.407,4.526 2.213,7.118 0.808,2.598 1.617,5.201 2.225,7.157 0.61,1.959 1.016,3.267 1.016,3.267 0.018,0.059 0.045,0.111 0.079,0.155 0.035,0.044 0.076,0.081 0.123,0.11 0.047,0.03 0.099,0.052 0.155,0.066 0.056,0.015 0.115,0.022 0.177,0.021 l 4.997,-0.04 c 0.063,-0.001 0.123,-0.009 0.179,-0.024 0.056,-0.016 0.107,-0.039 0.153,-0.069 0.046,-0.031 0.086,-0.069 0.119,-0.114 0.032,-0.045 0.057,-0.098 0.072,-0.157 l 5.609,-21.659 c 0.008,-0.026 0.014,-0.048 0.018,-0.067 0.004,-0.019 0.007,-0.035 0.009,-0.049 10e-4,-0.014 0.002,-0.027 0.002,-0.039 0,-0.012 0,-0.023 0,-0.036 -10e-4,-0.044 -0.01,-0.082 -0.026,-0.113 -0.016,-0.032 -0.039,-0.058 -0.07,-0.079 -0.032,-0.02 -0.071,-0.034 -0.118,-0.043 C -48.01,2.14 -48.065,2.137 -48.129,2.14 l -4.178,0.185 c -0.046,0.002 -0.088,0.01 -0.125,0.022 -0.038,0.012 -0.071,0.03 -0.1,0.052 -0.028,0.023 -0.053,0.051 -0.073,0.084 -0.02,0.033 -0.036,0.072 -0.047,0.116 l -0.705,3.07 c -0.011,0.043 -0.025,0.078 -0.043,0.106 -0.018,0.028 -0.04,0.049 -0.069,0.065 -0.029,0.016 -0.064,0.027 -0.107,0.035 -0.044,0.008 -0.096,0.012 -0.158,0.014 l -6.346,0.246 c -0.065,0.003 -0.118,0.003 -0.162,-0.002 -0.043,-0.004 -0.078,-0.012 -0.105,-0.026 -0.028,-0.014 -0.05,-0.033 -0.067,-0.059 -0.018,-0.027 -0.032,-0.06 -0.045,-0.101 L -61.302,2.98 c -0.013,-0.042 -0.03,-0.079 -0.051,-0.11 -0.021,-0.031 -0.046,-0.056 -0.074,-0.076 -0.028,-0.02 -0.06,-0.034 -0.094,-0.043 -0.034,-0.009 -0.072,-0.013 -0.112,-0.011 l -3.982,0.177 z m 27.077,12.685 6.447,-0.144 c 0.094,-0.002 0.179,0.011 0.254,0.036 0.075,0.026 0.141,0.065 0.195,0.116 0.053,0.051 0.096,0.114 0.126,0.188 0.029,0.073 0.046,0.157 0.049,0.251 l 0.203,7.76 c 0.002,0.093 0.019,0.177 0.049,0.251 0.029,0.074 0.072,0.137 0.125,0.189 0.054,0.052 0.12,0.092 0.195,0.119 0.076,0.027 0.161,0.041 0.256,0.04 l 3.822,-0.031 c 0.095,-10e-4 0.181,-0.016 0.256,-0.044 0.075,-0.029 0.139,-0.07 0.191,-0.123 0.051,-0.053 0.091,-0.118 0.117,-0.193 0.026,-0.075 0.039,-0.16 0.036,-0.254 L -26.793,1.799 c -0.002,-0.094 -0.019,-0.178 -0.049,-0.251 -0.03,-0.073 -0.073,-0.136 -0.127,-0.186 -0.055,-0.05 -0.121,-0.088 -0.197,-0.112 -0.076,-0.024 -0.163,-0.035 -0.258,-0.031 l -3.818,0.17 c -0.095,0.004 -0.18,0.022 -0.254,0.053 -0.074,0.031 -0.137,0.074 -0.188,0.128 -0.051,0.055 -0.09,0.12 -0.116,0.195 -0.025,0.076 -0.038,0.161 -0.035,0.254 l 0.217,8.294 c 0.003,0.093 -0.01,0.178 -0.035,0.253 -0.026,0.074 -0.065,0.139 -0.117,0.193 -0.051,0.053 -0.114,0.096 -0.188,0.125 -0.074,0.03 -0.158,0.047 -0.252,0.049 l -6.445,0.19 c -0.092,0.003 -0.175,-0.009 -0.249,-0.034 -0.074,-0.025 -0.137,-0.063 -0.19,-0.113 -0.053,-0.05 -0.094,-0.111 -0.123,-0.184 -0.029,-0.072 -0.046,-0.155 -0.048,-0.247 L -39.48,2.351 c -0.002,-0.092 -0.019,-0.174 -0.048,-0.246 -0.028,-0.072 -0.07,-0.133 -0.123,-0.182 -0.052,-0.05 -0.116,-0.087 -0.189,-0.111 -0.074,-0.023 -0.157,-0.034 -0.248,-0.03 l -3.669,0.163 c -0.09,0.004 -0.171,0.022 -0.242,0.052 -0.071,0.03 -0.132,0.072 -0.181,0.126 -0.049,0.053 -0.086,0.117 -0.111,0.191 -0.024,0.073 -0.036,0.157 -0.034,0.248 l 0.56,21.36 c 0.003,0.091 0.019,0.174 0.047,0.246 0.028,0.073 0.069,0.135 0.121,0.186 0.052,0.051 0.114,0.09 0.187,0.116 0.072,0.027 0.154,0.04 0.244,0.04 l 3.673,-0.03 c 0.091,-0.001 0.173,-0.016 0.246,-0.044 0.072,-0.027 0.133,-0.068 0.183,-0.12 0.05,-0.052 0.088,-0.116 0.114,-0.189 0.025,-0.074 0.037,-0.157 0.034,-0.249 l -0.201,-7.666 c -0.002,-0.092 0.01,-0.176 0.035,-0.25 0.025,-0.074 0.064,-0.138 0.114,-0.191 0.05,-0.052 0.111,-0.094 0.184,-0.122 0.072,-0.029 0.155,-0.045 0.246,-0.047 M -20.316,0.903 c -0.097,0.005 -0.185,0.023 -0.261,0.054 -0.076,0.032 -0.142,0.076 -0.195,0.131 -0.052,0.055 -0.093,0.122 -0.119,0.198 -0.027,0.077 -0.04,0.163 -0.037,0.258 l 0.581,22.166 c 0.002,0.095 0.019,0.18 0.05,0.255 0.031,0.076 0.074,0.14 0.13,0.193 0.056,0.053 0.123,0.093 0.201,0.121 0.078,0.027 0.166,0.041 0.264,0.041 l 3.955,-0.033 c 0.099,0 0.188,-0.016 0.266,-0.045 0.078,-0.029 0.144,-0.071 0.198,-0.125 0.054,-0.054 0.095,-0.12 0.122,-0.196 0.027,-0.076 0.04,-0.163 0.037,-0.258 L -15.588,5.962 c -0.002,-0.096 0.011,-0.183 0.038,-0.26 0.027,-0.078 0.068,-0.145 0.122,-0.2 0.054,-0.056 0.121,-0.1 0.199,-0.131 0.077,-0.031 0.167,-0.049 0.265,-0.053 L -6.087,4.987 C -5.985,4.984 -5.894,4.965 -5.814,4.934 -5.734,4.902 -5.665,4.857 -5.61,4.801 -5.554,4.745 -5.511,4.676 -5.483,4.598 -5.455,4.52 -5.442,4.431 -5.445,4.333 L -5.535,0.874 C -5.538,0.777 -5.556,0.69 -5.588,0.615 -5.62,0.539 -5.666,0.475 -5.724,0.423 -5.783,0.371 -5.854,0.332 -5.935,0.307 -6.017,0.283 -6.109,0.272 -6.211,0.276 L -20.316,0.903 z M 37.932,7.784 38.109,7.778 C 38,8.255 37.9,8.812 37.812,9.413 c -0.087,0.601 -0.163,1.247 -0.222,1.903 -0.06,0.656 -0.105,1.322 -0.13,1.963 -0.026,0.641 -0.033,1.257 -0.019,1.813 l 0.212,8.093 c 0.003,0.103 0.023,0.196 0.06,0.278 0.036,0.082 0.088,0.152 0.154,0.21 0.067,0.057 0.147,0.102 0.24,0.131 0.092,0.03 0.197,0.046 0.313,0.045 l 4.703,-0.039 c 0.117,0 0.223,-0.018 0.315,-0.049 0.093,-0.032 0.172,-0.078 0.236,-0.137 0.064,-0.059 0.113,-0.131 0.145,-0.214 0.032,-0.083 0.048,-0.177 0.045,-0.282 L 43.225,-1.247 c -0.002,-0.104 -0.023,-0.197 -0.059,-0.279 -0.037,-0.081 -0.09,-0.15 -0.157,-0.205 -0.067,-0.055 -0.148,-0.097 -0.242,-0.123 -0.094,-0.027 -0.2,-0.038 -0.317,-0.033 l -4.304,0.191 c -0.071,0.003 -0.137,0.011 -0.198,0.025 -0.061,0.014 -0.118,0.033 -0.171,0.06 -0.053,0.027 -0.102,0.061 -0.149,0.103 -0.047,0.043 -0.092,0.094 -0.134,0.155 l -8.438,13.346 c -0.123,0.212 -0.238,0.422 -0.341,0.619 -0.103,0.196 -0.195,0.379 -0.271,0.537 -0.077,0.159 -0.137,0.294 -0.179,0.393 -0.042,0.1 -0.064,0.165 -0.064,0.185 l -0.172,0.004 c 0.079,-0.279 0.152,-0.658 0.217,-1.108 0.065,-0.451 0.121,-0.974 0.165,-1.542 0.044,-0.568 0.076,-1.181 0.093,-1.81 0.016,-0.63 0.018,-1.278 10e-4,-1.915 L 28.297,-0.597 C 28.294,-0.699 28.275,-0.791 28.239,-0.87 28.204,-0.95 28.154,-1.017 28.09,-1.072 28.025,-1.126 27.947,-1.167 27.857,-1.193 27.767,-1.219 27.665,-1.23 27.553,-1.225 l -4.503,0.2 c -0.112,0.005 -0.212,0.025 -0.299,0.059 -0.087,0.034 -0.162,0.081 -0.222,0.14 -0.061,0.059 -0.107,0.131 -0.137,0.212 -0.03,0.082 -0.045,0.174 -0.043,0.275 l 0.621,23.657 c 0.002,0.101 0.022,0.192 0.056,0.272 0.035,0.081 0.085,0.149 0.148,0.206 0.063,0.056 0.14,0.099 0.229,0.129 0.089,0.029 0.19,0.044 0.302,0.043 l 4.164,-0.034 c 0.069,0 0.135,-0.007 0.196,-0.02 0.061,-0.012 0.117,-0.03 0.169,-0.053 0.052,-0.024 0.098,-0.053 0.14,-0.087 0.041,-0.034 0.078,-0.073 0.109,-0.118 L 36.779,9.967 c 0.127,-0.201 0.257,-0.421 0.382,-0.643 0.126,-0.222 0.246,-0.445 0.354,-0.652 0.107,-0.206 0.201,-0.396 0.274,-0.55 0.072,-0.154 0.123,-0.273 0.143,-0.338 m -99.053,18.275 c -0.158,10e-4 -0.311,0.039 -0.451,0.105 -0.14,0.067 -0.268,0.162 -0.375,0.278 -0.107,0.116 -0.194,0.252 -0.253,0.4 -0.059,0.149 -0.09,0.309 -0.086,0.474 l 0.025,0.962 c 0.005,0.169 0.04,0.332 0.102,0.48 0.062,0.149 0.15,0.284 0.259,0.398 0.109,0.114 0.24,0.207 0.386,0.272 0.147,0.064 0.31,0.1 0.484,0.1 l 1.808,0 c 0.164,0 0.32,-0.036 0.463,-0.101 0.143,-0.064 0.271,-0.158 0.379,-0.273 0.107,-0.115 0.194,-0.251 0.253,-0.401 0.058,-0.15 0.089,-0.314 0.084,-0.484 l -0.025,-0.968 c -0.004,-0.166 -0.044,-0.328 -0.112,-0.477 -0.068,-0.149 -0.163,-0.285 -0.278,-0.4 -0.114,-0.115 -0.249,-0.21 -0.394,-0.275 -0.145,-0.065 -0.301,-0.101 -0.461,-0.1 l -1.808,0.01 z m 7.73,-0.045 c -0.162,0.001 -0.319,0.04 -0.463,0.107 -0.144,0.068 -0.275,0.164 -0.385,0.281 -0.11,0.118 -0.199,0.255 -0.26,0.406 -0.06,0.15 -0.092,0.313 -0.088,0.48 l 0.026,0.974 c 0.004,0.171 0.041,0.336 0.104,0.486 0.063,0.151 0.153,0.288 0.265,0.403 0.112,0.116 0.246,0.21 0.396,0.275 0.151,0.066 0.318,0.102 0.497,0.102 l 1.855,0 c 0.167,0 0.328,-0.037 0.474,-0.102 0.147,-0.066 0.279,-0.161 0.389,-0.277 0.11,-0.116 0.199,-0.254 0.26,-0.406 0.06,-0.152 0.091,-0.318 0.087,-0.49 l -0.026,-0.981 c -0.004,-0.168 -0.046,-0.332 -0.115,-0.483 -0.069,-0.151 -0.167,-0.288 -0.285,-0.405 -0.117,-0.117 -0.255,-0.212 -0.404,-0.278 -0.149,-0.067 -0.309,-0.103 -0.473,-0.102 l -1.854,0.01 z m 108.9,5.421 -161.965,-0.425 -0.843,-32.184 161.72,-8.914 1.088,41.523 z"
               inkscape:connector-curvature="0" />
          </g>
          <g
             transform="translate(398.3141,43.5988)"
             id="g158">
            <path
               id="path160"
               style="fill:#000000;fill-opacity:1;fill-rule:nonzero;stroke:none"
               d="m 0,0 -0.577,0.01 -0.101,-0.697 -2.097,-7.304 c -0.013,-0.054 -0.019,-0.104 -0.015,-0.148 0.004,-0.044 0.018,-0.082 0.043,-0.114 0.025,-0.031 0.06,-0.057 0.108,-0.074 0.048,-0.018 0.109,-0.029 0.183,-0.031 L 1.417,-8.48 c 0.075,-0.003 0.137,0.004 0.188,0.019 0.051,0.015 0.09,0.038 0.119,0.068 0.029,0.03 0.047,0.067 0.055,0.111 0.009,0.044 0.007,0.094 -0.004,0.15 L 0.064,-0.701 0,0 z"
               inkscape:connector-curvature="0" />
          </g>
        </g>
      </g>
      <g
         id="g162"
         transform="matrix(5.5533468,0,0,-5.5533468,-1646.0634,1286.5786)">
        <g
           clip-path="url(#clipPath166)"
           id="g164">
          <g
             transform="translate(408.6743,89.4472)"
             id="g170">
            <path
               id="path172"
               style="fill:#000000;fill-opacity:1;fill-rule:nonzero;stroke:none"
               d="M 0,0 -4.65,-0.298 C -4.752,-0.304 -4.842,-0.327 -4.921,-0.365 -5,-0.403 -5.067,-0.456 -5.12,-0.522 -5.174,-0.588 -5.215,-0.666 -5.24,-0.756 -5.266,-0.847 -5.277,-0.948 -5.273,-1.059 l 0.2,-4.567 c 0.005,-0.111 0.025,-0.211 0.058,-0.297 0.034,-0.087 0.081,-0.16 0.14,-0.22 0.059,-0.059 0.13,-0.104 0.212,-0.132 0.082,-0.029 0.174,-0.042 0.275,-0.037 l 4.653,0.23 c 0.38,0.019 0.739,0.109 1.064,0.258 0.326,0.149 0.617,0.357 0.858,0.611 0.242,0.253 0.434,0.553 0.562,0.884 0.127,0.332 0.19,0.696 0.174,1.078 L 2.89,-2.496 C 2.873,-2.113 2.781,-1.759 2.628,-1.445 2.476,-1.131 2.262,-0.858 2.002,-0.635 1.742,-0.413 1.436,-0.241 1.097,-0.132 0.759,-0.023 0.389,0.025 0,0"
               inkscape:connector-curvature="0" />
          </g>
          <g
             transform="translate(431.922,89.189)"
             id="g174">
            <path
               id="path176"
               style="fill:#000000;fill-opacity:1;fill-rule:nonzero;stroke:none"
               d="m 0,0 -0.765,-0.046 -0.068,-0.931 -2.096,-9.834 c -0.013,-0.073 -0.016,-0.139 -0.006,-0.197 0.009,-0.057 0.031,-0.106 0.067,-0.146 0.035,-0.04 0.085,-0.07 0.15,-0.089 0.065,-0.019 0.145,-0.028 0.243,-0.024 l 5.147,0.179 c 0.099,0.003 0.182,0.017 0.248,0.041 0.067,0.025 0.117,0.059 0.153,0.101 0.035,0.043 0.056,0.094 0.063,0.153 0.007,0.059 0,0.126 -0.02,0.199 L 0.15,-0.92 0,0 z"
               inkscape:connector-curvature="0" />
          </g>
          <g
             transform="translate(369.2448,66.9332)"
             id="g178">
            <path
               id="path180"
               style="fill:#000000;fill-opacity:1;fill-rule:nonzero;stroke:none"
               d="m 0,0 c -0.084,-0.001 -0.162,0.014 -0.23,0.043 -0.068,0.029 -0.128,0.072 -0.178,0.129 -0.05,0.056 -0.089,0.125 -0.118,0.205 -0.028,0.08 -0.046,0.172 -0.05,0.273 l -1.026,23.521 c -0.005,0.101 0.004,0.194 0.026,0.277 0.021,0.082 0.054,0.155 0.099,0.215 0.045,0.061 0.101,0.109 0.166,0.144 0.066,0.035 0.141,0.057 0.226,0.063 l 7.754,0.598 c 1.149,0.088 2.168,-0.021 3.053,-0.311 0.889,-0.292 1.642,-0.765 2.257,-1.401 0.617,-0.639 1.095,-1.44 1.432,-2.385 0.337,-0.946 0.532,-2.036 0.585,-3.247 L 14.023,17.5 C 14.068,16.485 13.964,15.476 13.709,14.531 13.454,13.587 13.05,12.709 12.492,11.953 11.936,11.199 11.23,10.568 10.371,10.115 9.516,9.664 8.511,9.392 7.355,9.351 L 4.164,9.238 C 4.078,9.235 4,9.216 3.933,9.184 3.866,9.151 3.808,9.104 3.763,9.045 3.717,8.986 3.682,8.914 3.66,8.831 3.638,8.749 3.629,8.656 3.633,8.553 L 3.976,0.709 C 3.98,0.607 3.971,0.514 3.949,0.432 3.927,0.35 3.893,0.28 3.847,0.222 3.801,0.164 3.744,0.119 3.677,0.088 3.609,0.057 3.532,0.04 3.446,0.039 L 0,0 z M 30.4,0.344 C 30.301,0.343 30.211,0.359 30.131,0.39 30.052,0.422 29.982,0.468 29.924,0.529 29.867,0.59 29.821,0.664 29.788,0.751 29.755,0.837 29.736,0.936 29.731,1.045 l -1.109,25.402 c -0.005,0.11 0.006,0.21 0.031,0.3 0.025,0.089 0.065,0.167 0.117,0.233 0.052,0.065 0.117,0.118 0.194,0.156 0.077,0.039 0.165,0.063 0.264,0.07 l 9.904,0.763 c 1.262,0.098 2.412,-0.02 3.433,-0.335 1.025,-0.316 1.918,-0.829 2.66,-1.521 0.744,-0.694 1.335,-1.566 1.755,-2.596 0.42,-1.031 0.668,-2.218 0.726,-3.538 0.033,-0.759 -0.005,-1.474 -0.117,-2.144 -0.111,-0.671 -0.295,-1.297 -0.554,-1.878 -0.259,-0.581 -0.593,-1.118 -1.004,-1.61 -0.409,-0.492 -0.895,-0.939 -1.458,-1.342 -0.049,-0.034 -0.091,-0.068 -0.128,-0.103 -0.036,-0.035 -0.066,-0.07 -0.09,-0.106 -0.024,-0.036 -0.041,-0.073 -0.052,-0.112 -0.011,-0.039 -0.016,-0.08 -0.014,-0.123 0.002,-0.044 0.006,-0.084 0.013,-0.124 0.006,-0.039 0.015,-0.077 0.025,-0.114 0.011,-0.038 0.023,-0.075 0.038,-0.114 0.014,-0.039 0.03,-0.079 0.047,-0.121 L 48.848,1.82 C 48.899,1.706 48.943,1.603 48.981,1.509 49.019,1.416 49.05,1.332 49.075,1.257 49.1,1.182 49.119,1.116 49.132,1.058 49.145,1 49.153,0.949 49.155,0.906 49.157,0.862 49.148,0.818 49.129,0.777 49.111,0.736 49.082,0.697 49.042,0.664 49.002,0.631 48.952,0.603 48.891,0.583 48.83,0.564 48.759,0.552 48.676,0.551 L 43.771,0.495 c -0.04,0 -0.079,0.006 -0.117,0.02 -0.038,0.013 -0.074,0.034 -0.109,0.061 -0.035,0.028 -0.069,0.064 -0.1,0.107 -0.032,0.043 -0.062,0.093 -0.089,0.152 l -4.303,9.997 c -0.022,0.053 -0.048,0.097 -0.079,0.134 -0.03,0.037 -0.064,0.066 -0.1,0.089 -0.037,0.023 -0.077,0.039 -0.118,0.048 -0.041,0.01 -0.084,0.014 -0.128,0.012 l -3.359,-0.123 c -0.101,-0.004 -0.192,-0.025 -0.271,-0.06 -0.079,-0.036 -0.146,-0.087 -0.2,-0.151 -0.053,-0.064 -0.094,-0.141 -0.12,-0.23 -0.026,-0.089 -0.037,-0.19 -0.032,-0.301 L 35.045,1.115 C 35.049,1.004 35.038,0.903 35.012,0.815 34.987,0.727 34.946,0.65 34.892,0.588 34.839,0.525 34.772,0.476 34.693,0.443 34.614,0.409 34.524,0.391 34.423,0.39 L 30.4,0.344 z m 45.752,24.52 c -0.122,-0.008 -0.233,0.004 -0.331,0.033 -0.099,0.03 -0.184,0.078 -0.255,0.142 -0.071,0.063 -0.128,0.143 -0.168,0.238 -0.04,0.094 -0.064,0.204 -0.069,0.325 l -0.19,4.348 c -0.005,0.123 0.009,0.235 0.041,0.334 0.031,0.1 0.08,0.188 0.145,0.261 0.065,0.074 0.146,0.133 0.241,0.177 0.096,0.043 0.205,0.071 0.327,0.08 l 19.302,1.487 c 0.133,0.011 0.254,0 0.362,-0.029 0.107,-0.03 0.2,-0.078 0.278,-0.144 0.078,-0.065 0.139,-0.148 0.183,-0.247 0.043,-0.099 0.069,-0.213 0.075,-0.341 l 0.198,-4.548 c 0.006,-0.127 -0.01,-0.244 -0.045,-0.348 -0.034,-0.104 -0.088,-0.195 -0.16,-0.271 -0.071,-0.076 -0.16,-0.137 -0.264,-0.181 -0.104,-0.045 -0.224,-0.072 -0.357,-0.081 l -5.597,-0.358 c -0.13,-0.008 -0.246,-0.035 -0.347,-0.079 -0.102,-0.044 -0.188,-0.104 -0.257,-0.179 -0.07,-0.075 -0.122,-0.165 -0.156,-0.267 -0.033,-0.103 -0.048,-0.218 -0.043,-0.343 L 90.071,1.833 C 90.076,1.707 90.061,1.594 90.027,1.493 89.993,1.393 89.941,1.307 89.872,1.235 89.803,1.164 89.716,1.109 89.615,1.071 89.514,1.033 89.398,1.012 89.269,1.011 L 84.116,0.952 C 83.99,0.951 83.874,0.969 83.773,1.004 83.671,1.039 83.582,1.092 83.509,1.161 83.435,1.229 83.377,1.313 83.336,1.411 83.294,1.509 83.27,1.62 83.265,1.744 L 82.274,24.45 c -0.006,0.124 -0.03,0.235 -0.071,0.331 -0.042,0.096 -0.1,0.177 -0.173,0.242 -0.073,0.065 -0.161,0.114 -0.263,0.144 -0.101,0.03 -0.215,0.042 -0.34,0.034 L 76.152,24.864 z M 104.757,1.186 c -0.138,-0.002 -0.263,0.017 -0.374,0.054 -0.11,0.037 -0.207,0.092 -0.287,0.163 -0.079,0.072 -0.143,0.159 -0.188,0.261 -0.045,0.103 -0.071,0.219 -0.076,0.348 l -1.31,30.001 c -0.005,0.129 0.011,0.248 0.046,0.354 0.036,0.106 0.092,0.199 0.165,0.278 0.073,0.078 0.164,0.141 0.271,0.188 0.108,0.046 0.231,0.076 0.368,0.086 l 21.358,1.646 c 0.15,0.012 0.287,0.001 0.407,-0.029 0.122,-0.031 0.227,-0.082 0.314,-0.151 0.088,-0.07 0.157,-0.158 0.206,-0.262 0.049,-0.105 0.077,-0.226 0.083,-0.362 l 0.211,-4.832 c 0.006,-0.135 -0.012,-0.259 -0.051,-0.37 -0.04,-0.11 -0.101,-0.207 -0.182,-0.288 -0.081,-0.081 -0.181,-0.147 -0.299,-0.194 -0.117,-0.048 -0.252,-0.077 -0.402,-0.087 l -13.93,-0.891 c -0.142,-0.009 -0.269,-0.038 -0.379,-0.084 -0.111,-0.046 -0.205,-0.109 -0.281,-0.188 -0.076,-0.079 -0.134,-0.173 -0.171,-0.28 -0.037,-0.107 -0.054,-0.227 -0.048,-0.358 l 0.204,-4.681 c 0.006,-0.132 0.033,-0.249 0.079,-0.352 0.047,-0.102 0.112,-0.189 0.194,-0.258 0.083,-0.07 0.182,-0.122 0.296,-0.155 0.115,-0.033 0.244,-0.047 0.385,-0.04 l 11.381,0.58 c 0.149,0.007 0.284,-0.007 0.404,-0.04 0.12,-0.034 0.224,-0.087 0.311,-0.159 0.087,-0.071 0.155,-0.16 0.204,-0.265 0.048,-0.105 0.077,-0.226 0.082,-0.362 l 0.21,-4.807 c 0.006,-0.135 -0.011,-0.257 -0.051,-0.366 -0.039,-0.109 -0.1,-0.204 -0.18,-0.282 -0.08,-0.079 -0.179,-0.141 -0.296,-0.185 -0.116,-0.044 -0.25,-0.07 -0.398,-0.076 L 111.645,14.31 c -0.142,-0.006 -0.269,-0.031 -0.379,-0.074 -0.111,-0.043 -0.206,-0.104 -0.282,-0.181 -0.076,-0.076 -0.134,-0.169 -0.171,-0.275 -0.037,-0.106 -0.054,-0.225 -0.048,-0.357 l 0.215,-4.93 c 0.006,-0.132 0.033,-0.25 0.079,-0.354 0.047,-0.103 0.112,-0.192 0.195,-0.263 0.082,-0.072 0.182,-0.127 0.296,-0.162 0.114,-0.036 0.243,-0.054 0.385,-0.05 l 13.954,0.339 c 0.15,0.004 0.287,-0.014 0.409,-0.051 0.121,-0.037 0.227,-0.093 0.314,-0.167 0.088,-0.074 0.157,-0.165 0.206,-0.272 0.049,-0.107 0.078,-0.229 0.084,-0.365 l 0.211,-4.832 C 127.119,2.181 127.101,2.058 127.061,1.95 127.021,1.842 126.96,1.748 126.879,1.672 126.798,1.595 126.698,1.535 126.58,1.494 126.462,1.452 126.326,1.43 126.176,1.428 L 104.757,1.186 z M 19.425,0.22 C 19.332,0.219 19.246,0.234 19.171,0.265 19.095,0.295 19.029,0.341 18.974,0.4 18.92,0.459 18.876,0.531 18.845,0.616 18.814,0.7 18.795,0.796 18.79,0.903 L 17.702,25.83 c -0.004,0.106 0.006,0.203 0.03,0.29 0.023,0.087 0.06,0.163 0.11,0.227 0.049,0.063 0.111,0.114 0.184,0.152 0.072,0.037 0.156,0.06 0.249,0.067 l 3.799,0.295 c 0.094,0.007 0.181,-0.003 0.258,-0.029 0.077,-0.026 0.144,-0.068 0.2,-0.124 0.056,-0.056 0.101,-0.127 0.133,-0.21 0.032,-0.084 0.051,-0.18 0.056,-0.288 L 23.822,0.968 C 23.827,0.86 23.816,0.763 23.792,0.677 23.767,0.591 23.729,0.516 23.678,0.455 23.627,0.394 23.564,0.347 23.489,0.314 23.415,0.282 23.33,0.264 23.234,0.263 L 19.425,0.22 z m 32.496,0.368 c -0.077,-0.001 -0.147,0.005 -0.207,0.018 -0.06,0.013 -0.111,0.033 -0.153,0.06 -0.041,0.027 -0.073,0.061 -0.096,0.102 -0.022,0.041 -0.035,0.089 -0.037,0.143 -10e-4,0.028 0,0.061 0.003,0.097 0.003,0.035 0.008,0.074 0.014,0.112 0.006,0.039 0.013,0.077 0.022,0.113 0.008,0.036 0.017,0.069 0.026,0.096 0.004,0.017 0.408,1.737 1.013,4.315 0.606,2.586 1.417,6.042 2.23,9.511 0.817,3.485 1.637,6.983 2.255,9.616 0.619,2.642 1.033,4.408 1.033,4.408 0.018,0.079 0.048,0.15 0.089,0.212 0.041,0.062 0.092,0.115 0.151,0.159 0.059,0.044 0.126,0.079 0.198,0.104 0.072,0.025 0.149,0.041 0.23,0.047 l 6.624,0.514 c 0.084,0.006 0.165,0.003 0.242,-0.011 0.076,-0.014 0.147,-0.039 0.212,-0.074 0.064,-0.035 0.121,-0.08 0.168,-0.136 0.048,-0.057 0.086,-0.124 0.111,-0.202 L 75.639,1.459 C 75.652,1.424 75.662,1.396 75.67,1.371 75.677,1.346 75.682,1.325 75.686,1.306 75.69,1.287 75.692,1.271 75.693,1.254 75.695,1.238 75.696,1.222 75.696,1.205 75.699,1.147 75.691,1.096 75.672,1.052 75.654,1.009 75.624,0.972 75.583,0.943 75.543,0.913 75.491,0.891 75.428,0.876 75.364,0.86 75.29,0.852 75.203,0.851 L 69.538,0.787 C 69.476,0.786 69.419,0.793 69.368,0.807 69.317,0.82 69.271,0.841 69.23,0.869 69.19,0.897 69.155,0.933 69.125,0.975 69.095,1.018 69.07,1.067 69.051,1.124 L 67.819,5.152 C 67.8,5.208 67.778,5.253 67.751,5.289 67.724,5.325 67.692,5.351 67.652,5.37 67.612,5.389 67.564,5.401 67.505,5.408 67.446,5.414 67.376,5.416 67.292,5.414 L 58.854,5.23 C 58.768,5.229 58.699,5.224 58.642,5.215 58.585,5.206 58.54,5.193 58.505,5.173 58.47,5.152 58.443,5.125 58.423,5.089 58.402,5.053 58.386,5.008 58.372,4.952 L 57.539,0.985 C 57.525,0.929 57.505,0.88 57.481,0.838 57.456,0.796 57.426,0.761 57.391,0.733 57.356,0.705 57.316,0.684 57.272,0.669 57.228,0.655 57.179,0.647 57.125,0.647 L 51.921,0.588 z m 104.865,14.334 0.258,0.01 c -0.206,0.65 -0.406,1.412 -0.593,2.237 -0.187,0.825 -0.36,1.712 -0.512,2.615 -0.152,0.902 -0.282,1.82 -0.383,2.705 -0.101,0.884 -0.172,1.737 -0.206,2.509 l -0.49,11.232 c -0.006,0.143 0.014,0.275 0.059,0.393 0.044,0.117 0.113,0.221 0.204,0.308 0.09,0.088 0.203,0.159 0.334,0.211 0.132,0.053 0.284,0.087 0.452,0.1 l 6.906,0.536 c 0.173,0.013 0.331,0.003 0.47,-0.029 0.14,-0.032 0.262,-0.087 0.363,-0.16 0.101,-0.074 0.181,-0.168 0.237,-0.28 0.057,-0.112 0.089,-0.242 0.096,-0.387 l 1.488,-34.105 c 0.007,-0.146 -0.015,-0.278 -0.061,-0.394 -0.047,-0.117 -0.118,-0.217 -0.212,-0.3 -0.094,-0.082 -0.211,-0.147 -0.348,-0.192 -0.136,-0.044 -0.292,-0.068 -0.466,-0.07 l -6.343,-0.072 c -0.105,-10e-4 -0.203,0.005 -0.294,0.019 -0.091,0.014 -0.176,0.037 -0.256,0.07 -0.08,0.034 -0.156,0.077 -0.228,0.133 -0.072,0.055 -0.142,0.123 -0.21,0.204 l -13.478,17.638 c -0.196,0.279 -0.38,0.555 -0.547,0.813 -0.166,0.258 -0.314,0.499 -0.438,0.709 -0.123,0.209 -0.223,0.387 -0.291,0.519 -0.069,0.132 -0.107,0.219 -0.108,0.246 l -0.246,-0.013 c 0.138,-0.373 0.279,-0.884 0.414,-1.494 0.136,-0.61 0.267,-1.321 0.385,-2.094 0.118,-0.773 0.223,-1.609 0.309,-2.47 0.086,-0.861 0.151,-1.747 0.189,-2.621 l 0.477,-10.915 c 0.006,-0.14 -0.014,-0.267 -0.056,-0.378 -0.043,-0.112 -0.108,-0.209 -0.195,-0.288 -0.086,-0.079 -0.193,-0.141 -0.319,-0.184 -0.126,-0.042 -0.27,-0.066 -0.431,-0.068 L 136.33,1.543 c -0.156,-0.002 -0.299,0.018 -0.425,0.057 -0.125,0.04 -0.235,0.098 -0.325,0.174 -0.091,0.076 -0.163,0.17 -0.213,0.278 -0.051,0.109 -0.08,0.233 -0.086,0.371 l -1.406,32.216 c -0.006,0.137 0.012,0.264 0.053,0.377 0.041,0.112 0.104,0.212 0.188,0.296 0.083,0.083 0.187,0.151 0.309,0.202 0.122,0.05 0.262,0.082 0.418,0.094 l 5.883,0.456 c 0.098,0.008 0.192,0.007 0.279,-0.003 0.087,-0.009 0.169,-0.027 0.244,-0.053 0.076,-0.026 0.145,-0.059 0.207,-0.101 0.063,-0.041 0.118,-0.091 0.167,-0.147 l 13.269,-17.927 c 0.204,-0.265 0.416,-0.558 0.62,-0.852 0.205,-0.296 0.402,-0.593 0.579,-0.869 0.177,-0.276 0.333,-0.529 0.453,-0.736 0.121,-0.206 0.206,-0.366 0.242,-0.454 m 21.672,34.6 -195.556,-18.86 1.668,-38.216 196.456,-1.757 -2.568,58.833 z"
               inkscape:connector-curvature="0" />
          </g>
          <g
             transform="translate(376.2168,87.3704)"
             id="g182">
            <path
               id="path184"
               style="fill:#000000;fill-opacity:1;fill-rule:nonzero;stroke:none"
               d="m 0,0 -3.287,-0.21 c -0.086,-0.006 -0.164,-0.027 -0.231,-0.062 -0.067,-0.034 -0.125,-0.083 -0.17,-0.143 -0.046,-0.061 -0.081,-0.134 -0.103,-0.217 -0.022,-0.083 -0.031,-0.177 -0.026,-0.28 l 0.204,-4.674 c 0.004,-0.103 0.022,-0.195 0.051,-0.276 0.029,-0.08 0.069,-0.149 0.12,-0.204 0.051,-0.055 0.112,-0.097 0.182,-0.124 0.07,-0.026 0.149,-0.039 0.235,-0.034 l 3.29,0.158 c 0.331,0.016 0.641,0.097 0.919,0.235 0.278,0.139 0.524,0.335 0.725,0.583 0.203,0.248 0.361,0.546 0.464,0.888 0.103,0.343 0.151,0.729 0.132,1.151 L 2.48,-2.632 C 2.462,-2.21 2.38,-1.829 2.248,-1.496 2.115,-1.163 1.932,-0.879 1.709,-0.65 1.486,-0.421 1.224,-0.248 0.935,-0.137 0.647,-0.027 0.331,0.021 0,0"
               inkscape:connector-curvature="0" />
          </g>
        </g>
      </g>
      <g
         transform="matrix(5.5533468,0,0,-5.5533468,374.84619,941.45255)"
         id="g194">
        <path
           inkscape:connector-curvature="0"
           id="path196"
           style="fill:#ffffff;fill-opacity:1;fill-rule:nonzero;stroke:none"
           d="m 0,0 c 0,-20.398 -16.536,-36.935 -36.937,-36.935 -20.397,0 -36.934,16.537 -36.934,36.935 0,20.399 16.537,36.937 36.934,36.937 C -16.536,36.937 0,20.399 0,0" />
      </g>
      <g
         transform="matrix(5.5533468,0,0,-5.5533468,364.02325,941.45255)"
         id="g198">
        <path
           inkscape:connector-curvature="0"
           id="path200"
           style="fill:#faa22c;fill-opacity:1;fill-rule:nonzero;stroke:none"
           d="m 0,0 c 0,-19.323 -15.664,-34.988 -34.988,-34.988 -19.322,0 -34.986,15.665 -34.986,34.988 0,19.324 15.664,34.988 34.986,34.988 C -15.664,34.988 0,19.324 0,0" />
      </g>
      <g
         transform="matrix(5.5533468,0,0,-5.5533468,169.61835,793.62246)"
         id="g202">
        <path
           inkscape:connector-curvature="0"
           id="path204"
           style="fill:#ffffff;fill-opacity:1;fill-rule:nonzero;stroke:none"
           d="m 0,0 c -14.694,0 -26.6,-11.945 -26.6,-26.639 0,-14.694 11.906,-26.64 26.6,-26.64 14.693,0 26.64,11.946 26.64,26.64 C 26.64,-11.946 14.693,0 0,0" />
      </g>
      <g
         transform="matrix(5.5533468,0,0,-5.5533468,169.61835,804.72858)"
         id="g206">
        <path
           inkscape:connector-curvature="0"
           id="path208"
           style="fill:#ffffff;fill-opacity:1;fill-rule:nonzero;stroke:none"
           d="m 0,0 c -13.589,0 -24.598,-11.048 -24.598,-24.639 0,-13.59 11.009,-24.637 24.598,-24.637 13.589,0 24.638,11.047 24.638,24.637 C 24.638,-11.05 13.589,0 0,0" />
      </g>
      <g
         transform="matrix(5.5533468,0,0,-5.5533468,130.90321,975.57956)"
         id="g210">
        <path
           inkscape:connector-curvature="0"
           id="path212"
           style="fill:#000000;fill-opacity:1;fill-rule:nonzero;stroke:none"
           d="M 0,0 C 0.304,0.164 0.63,0.321 0.971,0.468 5.028,2.217 7.036,5.292 7.036,9.076 7.036,12.828 4.263,16.098 0,17.24 L 0,0 z m 8.152,19.971 c 9.026,-0.28 14.273,-4.386 14.273,-10.41 0,-5.507 -3.404,-8.521 -14.608,-10.509 -8.345,-1.481 -10.553,-3.493 -10.553,-6.93 0,-2.106 0.704,-3.719 1.936,-5.162 -1.875,1.177 -3.382,3.607 -3.382,6.358 0,1.69 0.499,3.292 1.632,4.648 l 0,19.684 c -0.279,0.018 -0.56,0.027 -0.848,0.027 -0.125,0 -0.247,-0.006 -0.366,-0.013 -0.152,-0.01 -0.199,0.167 -0.039,0.235 0.386,0.163 0.806,0.322 1.253,0.472 l 0,4.137 c 0,0.086 0.067,0.154 0.152,0.154 l 2.244,0 C -0.07,22.662 0,22.594 0,22.508 l 0,-3.43 c 2.68,0.615 5.745,0.968 8.152,0.893" />
      </g>
      <g
         transform="matrix(5.5533468,0,0,-5.5533468,169.62501,817.84838)"
         id="g214">
        <path
           inkscape:connector-curvature="0"
           id="path216"
           style="fill:#000000;fill-opacity:1;fill-rule:nonzero;stroke:none"
           d="m 0,0 c 12.312,0 22.275,-9.965 22.275,-22.277 0,-12.311 -9.963,-22.275 -22.275,-22.275 -12.308,0 -22.237,9.964 -22.237,22.275 C -22.237,-9.965 -12.308,0 0,0 m -0.001,2.363 c -13.59,0 -24.599,-11.048 -24.599,-24.64 0,-13.59 11.009,-24.636 24.599,-24.636 13.589,0 24.638,11.046 24.638,24.636 0,13.589 -11.049,24.64 -24.638,24.64" />
      </g>
    </g>
    <text
       xml:space="preserve"
       style="font-size:26.12875556999999915px;font-style:normal;font-variant:normal;font-weight:normal;font-stretch:normal;line-height:125%;letter-spacing:0px;word-spacing:0px;fill:#272828;fill-opacity:1;stroke:none;font-family:Politics Head;-inkscape-font-specification:Politics Head"
       x="95.901817"
       y="642.51208"
       id="text3149"
       sodipodi:linespacing="125%"><tspan
         sodipodi:role="line"
         id="tspan3151"
         x="95.901817"
         y="642.51208">www.piraten-augsburg.de</tspan></text>
  </g>
</svg>
